# xmcd
#
# Track frame offsets: 
#        150
#        14700
#        28903
#        41548
#        57687
#        74137
#        92014
#        110480
#        127639
#        144307
#        162644
#        172666
#        190887
#        208767
#        230565
#        248317
#        264111
#        283171
#        301074
#
# Disc length: 4245 seconds
#
# Revision: 5
# Processed by: cddbd v1.5.2PL0 Copyright (c) Steve Scherf et al.
# Submitted via: ExactAudioCopy v1.0b6
#
DISCID=0d109313
DTITLE=Various Artist - Yellow Magic Kayoukyoku [CD 2)
DYEAR=2005
DGENRE=Synthpop
TTITLE0=Kumiko Yamashita - Sekidou Komachi Doki
TTITLE1=Susan - Samarkand (Samarukando) Oodourii
TTITLE2=Ago and Kinzo - Aishuu No Desu Machi Rabu (Death Match Love) (Yo
TTITLE2=kokuhen)
TTITLE3=Hiroko Mita - Natsu No Shizuku
TTITLE4=Starbow - Haatobureiku (Heartbreak) Taiyouzoku
TTITLE5=Yoshie Kashiwabara - Shiawase Ondo
TTITLE6=Cosmic Invention - Kozumikku Saafin (Cosmic Surfin’)
TTITLE7=Chiemi Manabe - Nareweta Shojo
TTITLE8=Chiemi Manabe - Romantist (Romanchisuto)
TTITLE9=Kiyoshi Maekawa - Yuki Ressha
TTITLE10=Tamao Koike - Sangokushi Rabu Teema (Love Theme)
TTITLE11=Kuniko Yamada - I Like Best
TTITLE12=Kuniko Yamada - Tetsugaku Shiyou
TTITLE13=Masato Ibu - Datte, Horumon Rabu (Hormone Love) (Alternate ar
TTITLE13=tist name reading: Masato Ibu)
TTITLE14=Imo-Kin Trio - Tiineiji Iigurusu (Teenage Eagles)
TTITLE15=Kawakami-San and Nagashima-San - Kita Ka Chou-san Matteta Don
TTITLE16=Hiromi Go - Kimi No Na Wa Saiko
TTITLE17=Hiromi Go - Mainichi Boku O Aishite
TTITLE18=Yumi - From Tokyo -Ending Merodii (Melody) Wa Ripiito (Repeat
TTITLE18=) De-
EXTD=YEAR: 2005
EXTT0=
EXTT1=
EXTT2=
EXTT3=
EXTT4=
EXTT5=
EXTT6=
EXTT7=
EXTT8=
EXTT9=
EXTT10=
EXTT11=
EXTT12=
EXTT13=
EXTT14=
EXTT15=
EXTT16=
EXTT17=
EXTT18=
PLAYORDER=
